<svg width="1200" height="1200" viewBox="0 0 1200 1200" fill="none" xmlns="http://www.w3.org/2000/svg">
<path fill-rule="evenodd" clip-rule="evenodd" d="M412.464 288.981H867.657V911.669H467.183C442.629 911.669 422.686 931.603 422.686 956.147C422.686 980.691 442.629 1000.62 467.183 1000.62H1142.66C1153.38 1000.62 1162 991.945 1162 981.261V219.389C1162 208.706 1153.38 200.027 1142.66 200.027H412.464C387.91 200.027 367.966 219.96 367.966 244.504C367.966 269.047 387.91 288.981 412.464 288.981ZM344.399 1000.58C368.947 1000.58 388.876 980.652 388.876 956.107C388.876 931.556 368.947 911.626 344.399 911.626H304.179C279.631 911.626 259.699 931.556 259.699 956.107C259.699 980.652 279.631 1000.58 304.179 1000.58H344.399Z" fill="url(#paint0_linear)"/>
<path fill-rule="evenodd" clip-rule="evenodd" d="M481.01 289.035H937.088C937.088 350.894 987.303 401.12 1049.26 401.12V799.635C987.303 799.635 937.088 849.861 937.088 911.72H527.079C551.61 911.72 571.534 891.795 571.534 867.24C571.534 842.697 551.61 822.761 527.079 822.761H394.285C369.754 822.761 349.83 802.837 349.83 778.294C349.83 753.739 369.754 733.814 394.285 733.814H453.713C478.245 733.814 498.171 713.878 498.171 689.335C498.171 664.781 478.245 644.857 453.713 644.857H285.219C260.688 644.857 240.764 624.92 240.764 600.377C240.764 575.834 260.688 555.898 285.219 555.898H394.746C419.278 555.898 439.317 535.973 439.317 511.419C439.317 486.876 419.278 466.94 394.746 466.94H212.547C188.015 466.94 168.089 447.015 168.089 422.472C168.089 397.918 188.015 377.993 212.547 377.993H481.01C505.542 377.993 525.466 358.057 525.466 333.514C525.466 308.96 505.542 289.035 481.01 289.035ZM154.375 644.809C178.924 644.809 198.853 624.878 198.853 600.333C198.853 575.783 178.924 555.852 154.375 555.852H83.4781C58.9325 555.852 39.0005 575.783 39.0005 600.333C39.0005 624.878 58.9325 644.809 83.4781 644.809H154.375Z" fill="url(#paint1_linear)"/>
<defs>
<linearGradient id="paint0_linear" x1="258.981" y1="332.213" x2="1065.26" y2="1103.5" gradientUnits="userSpaceOnUse">
<stop stop-color="#F3DA5B"/>
<stop offset="1" stop-color="#ED9C00"/>
</linearGradient>
<linearGradient id="paint1_linear" x1="434.494" y1="352.467" x2="981.362" y2="833.243" gradientUnits="userSpaceOnUse">
<stop stop-color="#00509D"/>
<stop offset="1" stop-color="#00296B"/>
</linearGradient>
</defs>
</svg>
