<svg width="1668" height="488" viewBox="0 0 1668 488" fill="none" xmlns="http://www.w3.org/2000/svg">
<rect width="1668" height="488" fill="white"/>
<path fill-rule="evenodd" clip-rule="evenodd" d="M216.633 84.6442H450.203V404.159H244.71C232.111 404.159 221.878 414.388 221.878 426.982C221.878 439.576 232.111 449.804 244.71 449.804H591.311C596.813 449.804 601.236 445.351 601.236 439.869V48.9351C601.236 43.4533 596.813 39 591.311 39H216.633C204.034 39 193.8 49.2283 193.8 61.8221C193.8 74.416 204.034 84.6442 216.633 84.6442ZM181.707 449.783C194.303 449.783 204.53 439.556 204.53 426.962C204.53 414.364 194.303 404.137 181.707 404.137H161.07C148.474 404.137 138.246 414.364 138.246 426.962C138.246 439.556 148.474 449.783 161.07 449.783H181.707Z" fill="url(#paint0_linear_1245_20)"/>
<path fill-rule="evenodd" clip-rule="evenodd" d="M251.805 84.6722H485.828C485.828 116.413 511.595 142.185 543.389 142.185V346.672C511.595 346.672 485.828 372.445 485.828 404.185H275.444C288.031 404.185 298.255 393.962 298.255 381.362C298.255 368.769 288.031 358.539 275.444 358.539H207.305C194.717 358.539 184.493 348.315 184.493 335.722C184.493 323.122 194.717 312.898 207.305 312.898H237.798C250.386 312.898 260.611 302.669 260.611 290.075C260.611 277.476 250.386 267.252 237.798 267.252H151.34C138.753 267.252 128.529 257.022 128.529 244.429C128.529 231.835 138.753 221.606 151.34 221.606H207.541C220.129 221.606 230.411 211.382 230.411 198.782C230.411 186.189 220.129 175.959 207.541 175.959H114.05C101.463 175.959 91.238 165.735 91.238 153.142C91.238 140.542 101.463 130.319 114.05 130.319H251.805C264.393 130.319 274.616 120.089 274.616 107.496C274.616 94.8961 264.393 84.6722 251.805 84.6722ZM84.2014 267.228C96.7978 267.228 107.024 257.001 107.024 244.406C107.024 231.809 96.7978 221.582 84.2014 221.582H47.8224C35.2275 221.582 25 231.809 25 244.406C25 257.001 35.2275 267.228 47.8224 267.228H84.2014Z" fill="url(#paint1_linear_1245_20)"/>
<path d="M644.646 251.59C644.646 236.321 648.194 222.622 655.334 210.497C662.43 198.371 672.086 188.898 684.301 182.071C696.472 175.29 709.854 171.877 724.36 171.877C740.976 171.877 755.751 175.962 768.729 184.091C781.663 192.264 791.049 203.851 796.887 218.805H766.126C762.085 210.587 756.471 204.434 749.286 200.392C742.1 196.351 733.791 194.331 724.36 194.331C714.031 194.331 704.825 196.666 696.741 201.291C688.658 205.917 682.325 212.609 677.789 221.277C673.208 229.944 670.919 240.049 670.919 251.59C670.919 263.132 673.208 273.236 677.789 281.904C682.325 290.571 688.658 297.261 696.741 301.977C704.825 306.692 714.031 309.073 724.36 309.073C733.791 309.073 742.1 307.051 749.286 303.01C756.471 298.968 762.085 292.815 766.126 284.597H796.887C791.049 299.551 781.663 311.094 768.729 319.177C755.751 327.261 740.976 331.304 724.36 331.304C709.72 331.304 696.293 327.889 684.168 321.063C672.042 314.282 662.43 304.807 655.334 292.682C648.194 280.556 644.646 266.859 644.646 251.59Z" fill="#00509D"/>
<path d="M939.65 265.048C939.65 269.673 939.38 273.894 938.751 277.621H844.219C844.982 287.501 848.663 295.449 855.22 301.422C861.822 307.395 869.905 310.404 879.47 310.404C893.257 310.404 903.003 304.657 908.661 293.116H936.282C932.555 304.478 925.773 313.817 915.983 321.048C906.148 328.323 894.021 331.961 879.47 331.961C867.659 331.961 857.062 329.311 847.721 323.966C838.335 318.667 831.015 311.167 825.716 301.512C820.372 291.857 817.721 280.675 817.721 267.966C817.721 255.257 820.325 244.03 825.49 234.374C830.654 224.719 837.885 217.308 847.271 212.054C856.612 206.799 867.345 204.195 879.47 204.195C891.147 204.195 901.567 206.755 910.683 211.83C919.844 216.905 926.94 224.045 932.015 233.252C937.134 242.458 939.65 253.057 939.65 265.048ZM912.928 256.963C912.794 247.532 909.426 239.943 902.824 234.285C896.267 228.581 888.093 225.752 878.348 225.752C869.546 225.752 861.957 228.535 855.67 234.149C849.382 239.762 845.655 247.397 844.442 256.963H912.928Z" fill="#00509D"/>
<path d="M990.752 224.18C994.525 217.893 999.465 212.996 1005.71 209.449C1011.9 205.946 1019.27 204.195 1027.8 204.195V230.691H1021.29C1011.27 230.691 1003.69 233.206 998.521 238.326C993.357 243.401 990.752 252.247 990.752 264.822V329.94H965.153V206.216H990.752V224.18Z" fill="#00509D"/>
<path d="M1080.36 227.128V295.614C1080.36 300.239 1081.43 303.564 1083.64 305.585C1085.79 307.606 1089.52 308.637 1094.73 308.637H1110.45V329.969H1090.24C1078.74 329.969 1069.89 327.275 1063.74 321.886C1057.63 316.497 1054.53 307.739 1054.53 295.614V227.128H1039.94V206.246H1054.53V175.483H1080.36V206.246H1110.45V227.128H1080.36Z" fill="#00509D"/>
<path d="M1148.21 189.838C1143.58 189.838 1139.68 188.265 1136.53 185.122C1133.39 181.978 1131.82 178.07 1131.82 173.445C1131.82 168.819 1133.39 164.914 1136.53 161.77C1139.68 158.627 1143.58 157.053 1148.21 157.053C1152.7 157.053 1156.52 158.627 1159.66 161.77C1162.8 164.914 1164.38 168.819 1164.38 173.445C1164.38 178.07 1162.8 181.978 1159.66 185.122C1156.52 188.265 1152.7 189.838 1148.21 189.838ZM1160.78 206.23V329.953H1135.19V206.23H1160.78Z" fill="#00509D"/>
<path d="M1285.62 173.88V194.762H1219.38V240.794H1271.03V261.678H1219.38V329.938H1193.78V173.88H1285.62Z" fill="#FDC500"/>
<path d="M1300.62 267.517C1300.62 255.077 1303.22 244.074 1308.39 234.508C1313.55 224.943 1320.56 217.488 1329.5 212.144C1338.39 206.844 1348.22 204.195 1359 204.195C1368.74 204.195 1377.23 206.081 1384.51 209.898C1391.74 213.715 1397.58 218.477 1401.89 224.18V206.216H1427.71V329.94H1401.89V311.527C1397.58 317.365 1391.65 322.215 1384.15 326.122C1376.69 330.029 1368.16 331.961 1358.55 331.961C1347.95 331.961 1338.21 329.222 1329.36 323.743C1320.56 318.309 1313.55 310.674 1308.39 300.839C1303.22 291.049 1300.62 279.956 1300.62 267.517ZM1401.89 267.966C1401.89 259.434 1400.14 252.023 1396.63 245.735C1393.09 239.448 1388.51 234.644 1382.8 231.366C1377.14 228.088 1370.99 226.425 1364.39 226.425C1357.83 226.425 1351.68 228.041 1345.98 231.23C1340.32 234.463 1335.69 239.178 1332.19 245.376C1328.64 251.618 1326.89 258.984 1326.89 267.517C1326.89 276.049 1328.64 283.549 1332.19 289.971C1335.69 296.393 1340.32 301.288 1346.11 304.656C1351.86 308.025 1357.97 309.731 1364.39 309.731C1370.99 309.731 1377.14 308.069 1382.8 304.79C1388.51 301.512 1393.09 296.662 1396.63 290.285C1400.14 283.953 1401.89 276.499 1401.89 267.966Z" fill="#FDC500"/>
<path d="M1506.11 331.961C1496.41 331.961 1487.65 330.209 1479.97 326.661C1472.24 323.158 1466.14 318.355 1461.65 312.292C1457.15 306.229 1454.78 299.448 1454.46 291.993H1480.96C1481.41 297.202 1483.92 301.603 1488.5 305.106C1493.04 308.654 1498.79 310.404 1505.66 310.404C1512.84 310.404 1518.41 309.013 1522.41 306.229C1526.36 303.489 1528.34 299.941 1528.34 295.585C1528.34 290.959 1526.14 287.502 1521.74 285.257C1517.29 283.011 1510.33 280.539 1500.72 277.845C1491.47 275.285 1483.88 272.815 1478.04 270.435C1472.2 268.01 1467.17 264.374 1462.9 259.434C1458.64 254.494 1456.48 247.982 1456.48 239.898C1456.48 233.297 1458.46 227.278 1462.32 221.799C1466.23 216.365 1471.8 212.055 1479.07 208.911C1486.3 205.768 1494.65 204.195 1504.09 204.195C1518.19 204.195 1529.5 207.743 1538.13 214.839C1546.7 221.979 1551.33 231.679 1551.91 243.94H1526.32C1525.87 238.416 1523.62 233.969 1519.58 230.691C1515.54 227.412 1510.1 225.752 1503.19 225.752C1496.45 225.752 1491.29 227.008 1487.69 229.568C1484.1 232.083 1482.3 235.451 1482.3 239.672C1482.3 242.951 1483.52 245.735 1485.9 247.981C1488.32 250.226 1491.24 251.977 1494.65 253.235C1498.11 254.537 1503.19 256.154 1509.92 258.085C1518.9 260.466 1526.27 262.891 1532.06 265.361C1537.81 267.831 1542.8 271.47 1546.97 276.275C1551.19 281.08 1553.35 287.412 1553.49 295.361C1553.49 302.412 1551.56 308.653 1547.65 314.221C1543.79 319.745 1538.26 324.101 1531.16 327.245C1524.02 330.388 1515.72 331.961 1506.11 331.961Z" fill="#FDC500"/>
<path d="M1612.4 227.128V295.614C1612.4 300.239 1613.48 303.564 1615.68 305.585C1617.83 307.606 1621.56 308.637 1626.77 308.637H1642.49V329.969H1622.28C1610.78 329.969 1601.94 327.275 1595.78 321.886C1589.68 316.497 1586.58 307.739 1586.58 295.614V227.128H1571.98V206.246H1586.58V175.483H1612.4V206.246H1642.49V227.128H1612.4Z" fill="#FDC500"/>
<defs>
<linearGradient id="paint0_linear_1245_20" x1="137.878" y1="106.828" x2="551.595" y2="502.593" gradientUnits="userSpaceOnUse">
<stop stop-color="#F3DA5B"/>
<stop offset="1" stop-color="#ED9C00"/>
</linearGradient>
<linearGradient id="paint1_linear_1245_20" x1="227.936" y1="117.221" x2="508.547" y2="363.917" gradientUnits="userSpaceOnUse">
<stop stop-color="#00509D"/>
<stop offset="1" stop-color="#00296B"/>
</linearGradient>
</defs>
</svg>
